<mxfile host="app.diagrams.net" modified="2024-06-13T09:44:15.313Z" agent="Mozilla/5.0 (Windows NT 10.0; Win64; x64; rv:126.0) Gecko/20100101 Firefox/126.0" etag="2x_obWPe0lfB-VUtJwVm" version="24.5.4" type="device">
  <diagram name="Pagina-1" id="jaPRusA8gZ0oPbgDEtdI">
    <mxGraphModel dx="581" dy="451" grid="1" gridSize="10" guides="1" tooltips="1" connect="1" arrows="1" fold="1" page="1" pageScale="1" pageWidth="827" pageHeight="1169" math="0" shadow="0">
      <root>
        <mxCell id="0" />
        <mxCell id="1" parent="0" />
        <mxCell id="MIb7OlU5FuQa9LLyTPpT-1" style="edgeStyle=orthogonalEdgeStyle;rounded=0;orthogonalLoop=1;jettySize=auto;html=1;exitX=1;exitY=0.75;exitDx=0;exitDy=0;entryX=0;entryY=0.75;entryDx=0;entryDy=0;" edge="1" parent="1">
          <mxGeometry relative="1" as="geometry">
            <mxPoint x="190" y="110" as="targetPoint" />
            <mxPoint x="149.9999999999999" y="110" as="sourcePoint" />
            <Array as="points">
              <mxPoint x="171" y="110" />
              <mxPoint x="171" y="110" />
            </Array>
          </mxGeometry>
        </mxCell>
        <mxCell id="MIb7OlU5FuQa9LLyTPpT-2" value="&lt;i&gt;&lt;font data-font-src=&quot;http://mirrors.ctan.org/fonts/cm-unicode/fonts/otf/cmunss.otf&quot; face=&quot;Computer Modern&quot;&gt;s = 0*&lt;/font&gt;&lt;/i&gt;" style="edgeLabel;html=1;align=center;verticalAlign=middle;resizable=0;points=[];" vertex="1" connectable="0" parent="MIb7OlU5FuQa9LLyTPpT-1">
          <mxGeometry x="-0.0722" y="1" relative="1" as="geometry">
            <mxPoint x="-8" y="-9" as="offset" />
          </mxGeometry>
        </mxCell>
        <mxCell id="MIb7OlU5FuQa9LLyTPpT-3" value="&lt;font data-font-src=&quot;http://mirrors.ctan.org/fonts/cm-unicode/fonts/otf/cmunss.otf&quot; face=&quot;Computer Modern&quot;&gt;&lt;i&gt;&lt;font style=&quot;font-size: 10px;&quot;&gt;H&lt;/font&gt;&lt;font style=&quot;font-size: 10px;&quot;&gt;ash&lt;sub&gt;1&lt;/sub&gt;&lt;/font&gt;&lt;/i&gt;&lt;/font&gt;" style="shape=manualInput;whiteSpace=wrap;html=1;flipH=1;size=13;fillColor=#f5f5f5;strokeColor=#666666;fontColor=#333333;" vertex="1" parent="1">
          <mxGeometry x="80" y="80" width="40" height="40" as="geometry" />
        </mxCell>
        <mxCell id="MIb7OlU5FuQa9LLyTPpT-4" value="" style="endArrow=classic;html=1;rounded=0;entryX=0;entryY=0.75;entryDx=0;entryDy=0;" edge="1" parent="1" target="MIb7OlU5FuQa9LLyTPpT-3">
          <mxGeometry width="50" height="50" relative="1" as="geometry">
            <mxPoint x="40" y="110" as="sourcePoint" />
            <mxPoint x="80" y="105" as="targetPoint" />
          </mxGeometry>
        </mxCell>
        <mxCell id="MIb7OlU5FuQa9LLyTPpT-5" value="&lt;i&gt;&lt;font data-font-src=&quot;http://mirrors.ctan.org/fonts/cm-unicode/fonts/otf/cmunss.otf&quot; face=&quot;Computer Modern&quot;&gt;s = 0*&lt;br&gt;&lt;/font&gt;&lt;/i&gt;" style="edgeLabel;html=1;align=center;verticalAlign=middle;resizable=0;points=[];" vertex="1" connectable="0" parent="MIb7OlU5FuQa9LLyTPpT-4">
          <mxGeometry x="-0.1857" y="-1" relative="1" as="geometry">
            <mxPoint x="-6" y="-11" as="offset" />
          </mxGeometry>
        </mxCell>
        <mxCell id="MIb7OlU5FuQa9LLyTPpT-6" value="" style="endArrow=classic;html=1;rounded=0;entryX=0;entryY=0.25;entryDx=0;entryDy=0;" edge="1" parent="1" target="MIb7OlU5FuQa9LLyTPpT-3">
          <mxGeometry width="50" height="50" relative="1" as="geometry">
            <mxPoint x="40" y="90" as="sourcePoint" />
            <mxPoint x="80.00000000000006" y="74.99999999999994" as="targetPoint" />
            <Array as="points">
              <mxPoint x="60" y="90" />
            </Array>
          </mxGeometry>
        </mxCell>
        <mxCell id="MIb7OlU5FuQa9LLyTPpT-7" value="&lt;font face=&quot;Computer Modern&quot;&gt;G̃&lt;sub&gt;0&lt;/sub&gt;&lt;/font&gt;" style="edgeLabel;html=1;align=center;verticalAlign=middle;resizable=0;points=[];" vertex="1" connectable="0" parent="MIb7OlU5FuQa9LLyTPpT-6">
          <mxGeometry x="-0.3984" y="1" relative="1" as="geometry">
            <mxPoint y="-9" as="offset" />
          </mxGeometry>
        </mxCell>
        <mxCell id="MIb7OlU5FuQa9LLyTPpT-8" value="" style="endArrow=classic;html=1;rounded=0;entryX=0;entryY=0.25;entryDx=0;entryDy=0;" edge="1" parent="1">
          <mxGeometry width="50" height="50" relative="1" as="geometry">
            <mxPoint x="150" y="90" as="sourcePoint" />
            <mxPoint x="190" y="90" as="targetPoint" />
            <Array as="points">
              <mxPoint x="170" y="90" />
            </Array>
          </mxGeometry>
        </mxCell>
        <mxCell id="MIb7OlU5FuQa9LLyTPpT-9" value="&lt;font face=&quot;Computer Modern&quot;&gt;G̃&lt;sub&gt;1&lt;/sub&gt;&lt;/font&gt;" style="edgeLabel;html=1;align=center;verticalAlign=middle;resizable=0;points=[];" vertex="1" connectable="0" parent="MIb7OlU5FuQa9LLyTPpT-8">
          <mxGeometry x="-0.7317" y="-1" relative="1" as="geometry">
            <mxPoint x="5" y="-11" as="offset" />
          </mxGeometry>
        </mxCell>
        <mxCell id="MIb7OlU5FuQa9LLyTPpT-10" value="" style="endArrow=classic;html=1;rounded=0;exitX=1;exitY=0.75;exitDx=0;exitDy=0;dashed=1;" edge="1" parent="1">
          <mxGeometry width="50" height="50" relative="1" as="geometry">
            <mxPoint x="260" y="110" as="sourcePoint" />
            <mxPoint x="300" y="110" as="targetPoint" />
          </mxGeometry>
        </mxCell>
        <mxCell id="MIb7OlU5FuQa9LLyTPpT-11" value="&lt;i&gt;&lt;font data-font-src=&quot;http://mirrors.ctan.org/fonts/cm-unicode/fonts/otf/cmunss.otf&quot; face=&quot;Computer Modern&quot;&gt;s = 0*&lt;/font&gt;&lt;/i&gt;" style="edgeLabel;html=1;align=center;verticalAlign=middle;resizable=0;points=[];" vertex="1" connectable="0" parent="MIb7OlU5FuQa9LLyTPpT-10">
          <mxGeometry x="0.06" relative="1" as="geometry">
            <mxPoint x="-11" y="-10" as="offset" />
          </mxGeometry>
        </mxCell>
        <mxCell id="MIb7OlU5FuQa9LLyTPpT-12" value="" style="endArrow=classic;html=1;rounded=0;entryX=0;entryY=0.25;entryDx=0;entryDy=0;dashed=1;" edge="1" parent="1">
          <mxGeometry width="50" height="50" relative="1" as="geometry">
            <mxPoint x="260" y="90" as="sourcePoint" />
            <mxPoint x="300" y="90" as="targetPoint" />
            <Array as="points">
              <mxPoint x="280" y="90" />
            </Array>
          </mxGeometry>
        </mxCell>
        <mxCell id="MIb7OlU5FuQa9LLyTPpT-13" value="&lt;font data-font-src=&quot;http://mirrors.ctan.org/fonts/cm-unicode/fonts/otf/cmunss.otf&quot; face=&quot;Computer Modern&quot;&gt;...&lt;/font&gt;" style="edgeLabel;html=1;align=center;verticalAlign=middle;resizable=0;points=[];" vertex="1" connectable="0" parent="MIb7OlU5FuQa9LLyTPpT-12">
          <mxGeometry x="-0.6841" relative="1" as="geometry">
            <mxPoint x="4" y="-10" as="offset" />
          </mxGeometry>
        </mxCell>
        <mxCell id="MIb7OlU5FuQa9LLyTPpT-14" value="" style="endArrow=classic;html=1;rounded=0;entryX=0;entryY=0.25;entryDx=0;entryDy=0;" edge="1" parent="1">
          <mxGeometry width="50" height="50" relative="1" as="geometry">
            <mxPoint x="370" y="90" as="sourcePoint" />
            <mxPoint x="410" y="90" as="targetPoint" />
            <Array as="points">
              <mxPoint x="390" y="90" />
            </Array>
          </mxGeometry>
        </mxCell>
        <mxCell id="MIb7OlU5FuQa9LLyTPpT-15" value="&lt;font face=&quot;Computer Modern&quot;&gt;G̃&lt;sub&gt;t-1&lt;/sub&gt;&lt;/font&gt;" style="edgeLabel;html=1;align=center;verticalAlign=middle;resizable=0;points=[];" vertex="1" connectable="0" parent="MIb7OlU5FuQa9LLyTPpT-14">
          <mxGeometry x="-0.4937" y="2" relative="1" as="geometry">
            <mxPoint y="-8" as="offset" />
          </mxGeometry>
        </mxCell>
        <mxCell id="MIb7OlU5FuQa9LLyTPpT-16" value="&lt;font data-font-src=&quot;http://mirrors.ctan.org/fonts/cm-unicode/fonts/otf/cmunss.otf&quot; face=&quot;Computer Modern&quot;&gt;&lt;i&gt;&lt;font style=&quot;font-size: 10px;&quot;&gt;H&lt;/font&gt;&lt;font style=&quot;font-size: 10px;&quot;&gt;ash&lt;sub&gt;1&lt;/sub&gt;&lt;/font&gt;&lt;/i&gt;&lt;/font&gt;" style="shape=manualInput;whiteSpace=wrap;html=1;flipH=1;size=13;fillColor=#f5f5f5;fontColor=#333333;strokeColor=#666666;" vertex="1" parent="1">
          <mxGeometry x="190" y="80" width="40" height="40" as="geometry" />
        </mxCell>
        <mxCell id="MIb7OlU5FuQa9LLyTPpT-17" value="&lt;font data-font-src=&quot;http://mirrors.ctan.org/fonts/cm-unicode/fonts/otf/cmunss.otf&quot; face=&quot;Computer Modern&quot;&gt;&lt;i&gt;&lt;font style=&quot;font-size: 10px;&quot;&gt;H&lt;/font&gt;&lt;font style=&quot;font-size: 10px;&quot;&gt;ash&lt;sub&gt;1&lt;/sub&gt;&lt;/font&gt;&lt;/i&gt;&lt;/font&gt;" style="shape=manualInput;whiteSpace=wrap;html=1;flipH=1;size=13;fillColor=#f5f5f5;fontColor=#333333;strokeColor=#666666;" vertex="1" parent="1">
          <mxGeometry x="300" y="80" width="40" height="40" as="geometry" />
        </mxCell>
        <mxCell id="MIb7OlU5FuQa9LLyTPpT-18" value="&lt;font data-font-src=&quot;http://mirrors.ctan.org/fonts/cm-unicode/fonts/otf/cmunss.otf&quot; face=&quot;Computer Modern&quot;&gt;&lt;i&gt;&lt;font style=&quot;font-size: 10px;&quot;&gt;H&lt;/font&gt;&lt;font style=&quot;font-size: 10px;&quot;&gt;ash&lt;sub&gt;1&lt;/sub&gt;&lt;/font&gt;&lt;/i&gt;&lt;/font&gt;" style="shape=manualInput;whiteSpace=wrap;html=1;flipH=1;size=13;fillColor=#f5f5f5;fontColor=#333333;strokeColor=#666666;" vertex="1" parent="1">
          <mxGeometry x="410" y="80" width="40" height="40" as="geometry" />
        </mxCell>
        <mxCell id="MIb7OlU5FuQa9LLyTPpT-19" style="edgeStyle=orthogonalEdgeStyle;rounded=0;orthogonalLoop=1;jettySize=auto;html=1;exitX=1;exitY=0.75;exitDx=0;exitDy=0;entryX=1.059;entryY=0.767;entryDx=0;entryDy=0;entryPerimeter=0;" edge="1" parent="1" target="MIb7OlU5FuQa9LLyTPpT-18">
          <mxGeometry relative="1" as="geometry">
            <mxPoint x="370" y="110" as="sourcePoint" />
          </mxGeometry>
        </mxCell>
        <mxCell id="MIb7OlU5FuQa9LLyTPpT-20" value="&lt;i&gt;&lt;font data-font-src=&quot;http://mirrors.ctan.org/fonts/cm-unicode/fonts/otf/cmunss.otf&quot; face=&quot;Computer Modern&quot;&gt;s = 0*&lt;/font&gt;&lt;/i&gt;" style="edgeLabel;html=1;align=center;verticalAlign=middle;resizable=0;points=[];" vertex="1" connectable="0" parent="MIb7OlU5FuQa9LLyTPpT-19">
          <mxGeometry x="-0.0805" relative="1" as="geometry">
            <mxPoint x="-8" y="-10" as="offset" />
          </mxGeometry>
        </mxCell>
        <mxCell id="MIb7OlU5FuQa9LLyTPpT-24" style="edgeStyle=orthogonalEdgeStyle;rounded=0;orthogonalLoop=1;jettySize=auto;html=1;exitX=1;exitY=0.75;exitDx=0;exitDy=0;entryX=0;entryY=0.75;entryDx=0;entryDy=0;" edge="1" parent="1" target="MIb7OlU5FuQa9LLyTPpT-39">
          <mxGeometry relative="1" as="geometry">
            <mxPoint x="230" y="160" as="targetPoint" />
            <mxPoint x="158.86" y="160" as="sourcePoint" />
            <Array as="points">
              <mxPoint x="210" y="160" />
              <mxPoint x="210" y="160" />
            </Array>
          </mxGeometry>
        </mxCell>
        <mxCell id="MIb7OlU5FuQa9LLyTPpT-25" value="&lt;i&gt;&lt;font data-font-src=&quot;http://mirrors.ctan.org/fonts/cm-unicode/fonts/otf/cmunss.otf&quot; face=&quot;Computer Modern&quot;&gt;s&lt;sub&gt;1&lt;/sub&gt;&lt;/font&gt;&lt;/i&gt;" style="edgeLabel;html=1;align=center;verticalAlign=middle;resizable=0;points=[];" vertex="1" connectable="0" parent="MIb7OlU5FuQa9LLyTPpT-24">
          <mxGeometry x="-0.0722" y="1" relative="1" as="geometry">
            <mxPoint x="4" y="-9" as="offset" />
          </mxGeometry>
        </mxCell>
        <mxCell id="MIb7OlU5FuQa9LLyTPpT-26" value="&lt;font data-font-src=&quot;http://mirrors.ctan.org/fonts/cm-unicode/fonts/otf/cmunss.otf&quot; face=&quot;Computer Modern&quot;&gt;&lt;i&gt;&lt;font style=&quot;font-size: 10px;&quot;&gt;H&lt;/font&gt;&lt;font style=&quot;font-size: 10px;&quot;&gt;ash&lt;sub&gt;2&lt;/sub&gt;&lt;/font&gt;&lt;/i&gt;&lt;/font&gt;" style="shape=manualInput;whiteSpace=wrap;html=1;flipH=1;size=13;fillColor=#f5f5f5;strokeColor=#666666;fontColor=#333333;" vertex="1" parent="1">
          <mxGeometry x="150" y="130" width="40" height="40" as="geometry" />
        </mxCell>
        <mxCell id="MIb7OlU5FuQa9LLyTPpT-27" value="" style="endArrow=classic;html=1;rounded=0;entryX=0;entryY=0.75;entryDx=0;entryDy=0;" edge="1" parent="1" target="MIb7OlU5FuQa9LLyTPpT-26">
          <mxGeometry width="50" height="50" relative="1" as="geometry">
            <mxPoint x="110" y="160" as="sourcePoint" />
            <mxPoint x="150" y="155" as="targetPoint" />
          </mxGeometry>
        </mxCell>
        <mxCell id="MIb7OlU5FuQa9LLyTPpT-28" value="&lt;i&gt;&lt;font data-font-src=&quot;http://mirrors.ctan.org/fonts/cm-unicode/fonts/otf/cmunss.otf&quot; face=&quot;Computer Modern&quot;&gt;s&lt;sub&gt;0 &lt;/sub&gt;= 0*&lt;sub&gt;&lt;br&gt;&lt;/sub&gt;&lt;/font&gt;&lt;/i&gt;" style="edgeLabel;html=1;align=center;verticalAlign=middle;resizable=0;points=[];" vertex="1" connectable="0" parent="MIb7OlU5FuQa9LLyTPpT-27">
          <mxGeometry x="-0.1857" y="-1" relative="1" as="geometry">
            <mxPoint y="-11" as="offset" />
          </mxGeometry>
        </mxCell>
        <mxCell id="MIb7OlU5FuQa9LLyTPpT-29" value="" style="endArrow=classic;html=1;rounded=0;entryX=0;entryY=0.25;entryDx=0;entryDy=0;exitX=1;exitY=0.75;exitDx=0;exitDy=0;" edge="1" parent="1" target="MIb7OlU5FuQa9LLyTPpT-26" source="MIb7OlU5FuQa9LLyTPpT-3">
          <mxGeometry width="50" height="50" relative="1" as="geometry">
            <mxPoint x="130" y="110" as="sourcePoint" />
            <mxPoint x="150.00000000000006" y="124.99999999999994" as="targetPoint" />
            <Array as="points">
              <mxPoint x="130" y="110" />
              <mxPoint x="130" y="140" />
            </Array>
          </mxGeometry>
        </mxCell>
        <mxCell id="MIb7OlU5FuQa9LLyTPpT-46" value="&lt;i&gt;&lt;font data-font-src=&quot;http://mirrors.ctan.org/fonts/cm-unicode/fonts/otf/cmunss.otf&quot; face=&quot;Computer Modern&quot;&gt;i&lt;sub&gt;0&lt;/sub&gt;&lt;/font&gt;&lt;/i&gt;" style="edgeLabel;html=1;align=center;verticalAlign=middle;resizable=0;points=[];" vertex="1" connectable="0" parent="MIb7OlU5FuQa9LLyTPpT-29">
          <mxGeometry x="-0.1127" y="-1" relative="1" as="geometry">
            <mxPoint x="-9" y="3" as="offset" />
          </mxGeometry>
        </mxCell>
        <mxCell id="MIb7OlU5FuQa9LLyTPpT-31" value="" style="endArrow=classic;html=1;rounded=0;entryX=0;entryY=0.25;entryDx=0;entryDy=0;exitX=1;exitY=0.75;exitDx=0;exitDy=0;" edge="1" parent="1" source="MIb7OlU5FuQa9LLyTPpT-16" target="MIb7OlU5FuQa9LLyTPpT-39">
          <mxGeometry width="50" height="50" relative="1" as="geometry">
            <mxPoint x="230" y="130" as="sourcePoint" />
            <mxPoint x="250" y="140" as="targetPoint" />
            <Array as="points">
              <mxPoint x="240" y="110" />
              <mxPoint x="240" y="140" />
            </Array>
          </mxGeometry>
        </mxCell>
        <mxCell id="MIb7OlU5FuQa9LLyTPpT-47" value="&lt;i&gt;&lt;font data-font-src=&quot;http://mirrors.ctan.org/fonts/cm-unicode/fonts/otf/cmunss.otf&quot; face=&quot;Computer Modern&quot;&gt;i&lt;sub&gt;1&lt;/sub&gt;&lt;/font&gt;&lt;/i&gt;" style="edgeLabel;html=1;align=center;verticalAlign=middle;resizable=0;points=[];" vertex="1" connectable="0" parent="MIb7OlU5FuQa9LLyTPpT-31">
          <mxGeometry x="-0.1127" y="-1" relative="1" as="geometry">
            <mxPoint x="-9" y="3" as="offset" />
          </mxGeometry>
        </mxCell>
        <mxCell id="MIb7OlU5FuQa9LLyTPpT-33" value="" style="endArrow=classic;html=1;rounded=0;exitX=1;exitY=0.75;exitDx=0;exitDy=0;dashed=1;entryX=1.085;entryY=0.76;entryDx=0;entryDy=0;entryPerimeter=0;" edge="1" parent="1" target="MIb7OlU5FuQa9LLyTPpT-40">
          <mxGeometry width="50" height="50" relative="1" as="geometry">
            <mxPoint x="301.14" y="160" as="sourcePoint" />
            <mxPoint x="341.14" y="160" as="targetPoint" />
          </mxGeometry>
        </mxCell>
        <mxCell id="MIb7OlU5FuQa9LLyTPpT-34" value="&lt;font face=&quot;Computer Modern&quot;&gt;&lt;i&gt;...&lt;/i&gt;&lt;/font&gt;" style="edgeLabel;html=1;align=center;verticalAlign=middle;resizable=0;points=[];" vertex="1" connectable="0" parent="MIb7OlU5FuQa9LLyTPpT-33">
          <mxGeometry x="0.06" relative="1" as="geometry">
            <mxPoint x="-16" y="-10" as="offset" />
          </mxGeometry>
        </mxCell>
        <mxCell id="MIb7OlU5FuQa9LLyTPpT-35" value="" style="endArrow=classic;html=1;rounded=0;entryX=0;entryY=0.25;entryDx=0;entryDy=0;dashed=1;exitX=1;exitY=0.75;exitDx=0;exitDy=0;" edge="1" parent="1" source="MIb7OlU5FuQa9LLyTPpT-17">
          <mxGeometry width="50" height="50" relative="1" as="geometry">
            <mxPoint x="350" y="130" as="sourcePoint" />
            <mxPoint x="370" y="140" as="targetPoint" />
            <Array as="points">
              <mxPoint x="350" y="110" />
              <mxPoint x="350" y="140" />
            </Array>
          </mxGeometry>
        </mxCell>
        <mxCell id="MIb7OlU5FuQa9LLyTPpT-48" value="&lt;i&gt;&lt;font data-font-src=&quot;http://mirrors.ctan.org/fonts/cm-unicode/fonts/otf/cmunss.otf&quot; face=&quot;Computer Modern&quot;&gt;...&lt;/font&gt;&lt;/i&gt;" style="edgeLabel;html=1;align=center;verticalAlign=middle;resizable=0;points=[];" vertex="1" connectable="0" parent="MIb7OlU5FuQa9LLyTPpT-35">
          <mxGeometry x="-0.2533" y="1" relative="1" as="geometry">
            <mxPoint x="-11" y="8" as="offset" />
          </mxGeometry>
        </mxCell>
        <mxCell id="MIb7OlU5FuQa9LLyTPpT-37" value="" style="endArrow=classic;html=1;rounded=0;exitX=1;exitY=0.75;exitDx=0;exitDy=0;entryX=0;entryY=0.25;entryDx=0;entryDy=0;" edge="1" parent="1" source="MIb7OlU5FuQa9LLyTPpT-18" target="MIb7OlU5FuQa9LLyTPpT-41">
          <mxGeometry width="50" height="50" relative="1" as="geometry">
            <mxPoint x="460" y="110" as="sourcePoint" />
            <mxPoint x="470" y="140" as="targetPoint" />
            <Array as="points">
              <mxPoint x="460" y="110" />
              <mxPoint x="460" y="140" />
            </Array>
          </mxGeometry>
        </mxCell>
        <mxCell id="MIb7OlU5FuQa9LLyTPpT-49" value="&lt;i&gt;&lt;font data-font-src=&quot;http://mirrors.ctan.org/fonts/cm-unicode/fonts/otf/cmunss.otf&quot; face=&quot;Computer Modern&quot;&gt;i&lt;sub&gt;t-1&lt;/sub&gt;&lt;/font&gt;&lt;/i&gt;" style="edgeLabel;html=1;align=center;verticalAlign=middle;resizable=0;points=[];" vertex="1" connectable="0" parent="MIb7OlU5FuQa9LLyTPpT-37">
          <mxGeometry x="-0.04" y="1" relative="1" as="geometry">
            <mxPoint x="-11" y="1" as="offset" />
          </mxGeometry>
        </mxCell>
        <mxCell id="MIb7OlU5FuQa9LLyTPpT-39" value="&lt;font data-font-src=&quot;http://mirrors.ctan.org/fonts/cm-unicode/fonts/otf/cmunss.otf&quot; face=&quot;Computer Modern&quot;&gt;&lt;i&gt;&lt;font style=&quot;font-size: 10px;&quot;&gt;H&lt;/font&gt;&lt;font style=&quot;font-size: 10px;&quot;&gt;ash&lt;sub&gt;2&lt;/sub&gt;&lt;/font&gt;&lt;/i&gt;&lt;/font&gt;" style="shape=manualInput;whiteSpace=wrap;html=1;flipH=1;size=13;fillColor=#f5f5f5;fontColor=#333333;strokeColor=#666666;" vertex="1" parent="1">
          <mxGeometry x="260" y="130" width="40" height="40" as="geometry" />
        </mxCell>
        <mxCell id="MIb7OlU5FuQa9LLyTPpT-40" value="&lt;font data-font-src=&quot;http://mirrors.ctan.org/fonts/cm-unicode/fonts/otf/cmunss.otf&quot; face=&quot;Computer Modern&quot;&gt;&lt;i&gt;&lt;font style=&quot;font-size: 10px;&quot;&gt;H&lt;/font&gt;&lt;font style=&quot;font-size: 10px;&quot;&gt;ash&lt;sub&gt;2&lt;/sub&gt;&lt;/font&gt;&lt;/i&gt;&lt;/font&gt;" style="shape=manualInput;whiteSpace=wrap;html=1;flipH=1;size=13;fillColor=#f5f5f5;fontColor=#333333;strokeColor=#666666;" vertex="1" parent="1">
          <mxGeometry x="370" y="130" width="40" height="40" as="geometry" />
        </mxCell>
        <mxCell id="MIb7OlU5FuQa9LLyTPpT-41" value="&lt;font data-font-src=&quot;http://mirrors.ctan.org/fonts/cm-unicode/fonts/otf/cmunss.otf&quot; face=&quot;Computer Modern&quot;&gt;&lt;i&gt;&lt;font style=&quot;font-size: 10px;&quot;&gt;H&lt;/font&gt;&lt;font style=&quot;font-size: 10px;&quot;&gt;ash&lt;sub&gt;2&lt;/sub&gt;&lt;/font&gt;&lt;/i&gt;&lt;/font&gt;" style="shape=manualInput;whiteSpace=wrap;html=1;flipH=1;size=13;fillColor=#f5f5f5;fontColor=#333333;strokeColor=#666666;" vertex="1" parent="1">
          <mxGeometry x="480" y="130" width="40" height="40" as="geometry" />
        </mxCell>
        <mxCell id="MIb7OlU5FuQa9LLyTPpT-42" style="edgeStyle=orthogonalEdgeStyle;rounded=0;orthogonalLoop=1;jettySize=auto;html=1;exitX=1;exitY=0.75;exitDx=0;exitDy=0;entryX=0;entryY=0.75;entryDx=0;entryDy=0;" edge="1" parent="1" source="MIb7OlU5FuQa9LLyTPpT-40" target="MIb7OlU5FuQa9LLyTPpT-41">
          <mxGeometry relative="1" as="geometry">
            <mxPoint x="470" y="160" as="targetPoint" />
          </mxGeometry>
        </mxCell>
        <mxCell id="MIb7OlU5FuQa9LLyTPpT-43" value="&lt;i&gt;&lt;font data-font-src=&quot;http://mirrors.ctan.org/fonts/cm-unicode/fonts/otf/cmunss.otf&quot; face=&quot;Computer Modern&quot;&gt;s&lt;sub&gt;t-1&lt;/sub&gt;&lt;/font&gt;&lt;/i&gt;" style="edgeLabel;html=1;align=center;verticalAlign=middle;resizable=0;points=[];" vertex="1" connectable="0" parent="MIb7OlU5FuQa9LLyTPpT-42">
          <mxGeometry x="-0.0805" relative="1" as="geometry">
            <mxPoint x="-12" y="-10" as="offset" />
          </mxGeometry>
        </mxCell>
        <mxCell id="MIb7OlU5FuQa9LLyTPpT-44" style="edgeStyle=orthogonalEdgeStyle;rounded=0;orthogonalLoop=1;jettySize=auto;html=1;exitX=1;exitY=0.75;exitDx=0;exitDy=0;entryX=0;entryY=0.75;entryDx=0;entryDy=0;" edge="1" parent="1">
          <mxGeometry relative="1" as="geometry">
            <mxPoint x="520" y="160" as="sourcePoint" />
            <mxPoint x="560" y="160" as="targetPoint" />
            <Array as="points">
              <mxPoint x="540" y="160" />
              <mxPoint x="540" y="160" />
            </Array>
          </mxGeometry>
        </mxCell>
        <mxCell id="MIb7OlU5FuQa9LLyTPpT-45" value="&lt;i&gt;&lt;font data-font-src=&quot;http://mirrors.ctan.org/fonts/cm-unicode/fonts/otf/cmunss.otf&quot; face=&quot;Computer Modern&quot;&gt;s&lt;sub&gt;t&lt;/sub&gt;&lt;/font&gt;&lt;/i&gt;" style="edgeLabel;html=1;align=center;verticalAlign=middle;resizable=0;points=[];" vertex="1" connectable="0" parent="MIb7OlU5FuQa9LLyTPpT-44">
          <mxGeometry x="-0.0722" y="1" relative="1" as="geometry">
            <mxPoint x="2" y="-9" as="offset" />
          </mxGeometry>
        </mxCell>
      </root>
    </mxGraphModel>
  </diagram>
</mxfile>
